# xmcd
#
# Track frame offsets: 
#        150
#        14942
#        32557
#
# Disc length: 1210 seconds
#
# Revision: 3
# Processed by: cddbd v1.5.1PL0 Copyright (c) Steve Scherf et al.
# Submitted via: ExactAudioCopy v0.95a5
#
DISCID=1404b803,2004b803
DTITLE=Status Quo - Rock 'Til You Drop (Single)
DYEAR=1991
DGENRE=Rock
TTITLE0=Rock 'Til You Drop
TTITLE1=Medley (Caroline and Down Down and Whatever You Want and Rocking All
TTITLE1=Over The World)
TTITLE2=Forty Five Hundred Times
EXTD=
EXTT0=
EXTT1=
EXTT2=
PLAYORDER=
